Coordinates
version=1
nRows=18
nColumns=22
inDegrees=yes

Units are S.I. units (second, meters, Newtons, ...)
If the header above contains a line with 'inDegrees', this indicates whether rotational values are in degrees (yes) or radians (no).

endheader
time	pelvis_tilt	pelvis_list	pelvis_rotation	pelvis_tx	pelvis_ty	pelvis_tz	hip_flexion_r	hip_adduction_r	hip_rotation_r	knee_angle_r	ankle_angle_r	subtalar_angle_r	hip_flexion_l	hip_adduction_l	hip_rotation_l	knee_angle_l	ankle_angle_l	subtalar_angle_l	lumbar_extension	lumbar_bending	lumbar_rotation
      0.01000000	      0.40021263	     -3.31195767	      4.37027186	     -1.33674435	      1.01333236	     -0.52524699	     -2.64882012	      2.85754406	     -8.84545558	     -8.10963483	      9.79899118	     -2.82748902	     -0.91623689	     -7.15388576	     -7.39275188	    -10.51446954	     11.40013295	      2.67925028	     -3.96457613	      1.73029305	      0.14688958
      0.02000000	      0.53894890	     -3.34576734	      4.39082983	     -1.33637595	      1.01358112	     -0.52563984	     -2.84584771	      2.89175467	     -8.63052204	     -8.06834576	      9.73996300	     -2.79488416	     -1.21143418	     -7.15948439	     -7.39750427	    -10.27301233	     11.33992107	      2.65164301	     -4.06626337	      1.77033363	      0.10103545
      0.03000000	      0.64691048	     -3.36959611	      4.39124579	     -1.33603004	      1.01377731	     -0.52602862	     -3.00129737	      2.90829866	     -8.42725234	     -8.04230179	      9.72381451	     -2.74061851	     -1.48958108	     -7.14694495	     -7.42409659	    -10.00720791	     11.27744148	      2.56949627	     -4.13227969	      1.78768948	      0.06993610
      0.04000000	      0.74046158	     -3.39680095	      4.37043474	     -1.33569847	      1.01394468	     -0.52636263	     -3.14286051	      2.92677888	     -8.26449806	     -8.00554220	      9.70182886	     -2.67820982	     -1.76195651	     -7.13683208	     -7.48346988	     -9.72963148	     11.21736291	      2.45662326	     -4.17973395	      1.79258150	      0.05343585
      0.05000000	      0.75017285	     -3.44176463	      4.33641553	     -1.33547716	      1.01398060	     -0.52663522	     -3.17046901	      2.95679981	     -8.14598018	     -7.99582731	      9.69316713	     -2.65075544	     -1.93392505	     -7.14045100	     -7.51146248	     -9.46216953	     11.17397747	      2.40560724	     -4.13811157	      1.80053920	      0.05151206
      0.06000000	      0.82403473	     -3.46184282	      4.25023299	     -1.33530281	      1.01411600	     -0.52679710	     -3.26874822	      2.96345475	     -7.98246021	     -7.97512728	      9.65235706	     -2.58630230	     -2.18670721	     -7.12322854	     -7.64847201	     -9.18840289	     11.07956713	      2.26026467	     -4.18430129	      1.77802787	      0.06986554
      0.07000000	      0.84969584	     -3.49163514	      4.16798347	     -1.33515563	      1.01416667	     -0.52690739	     -3.31204253	      2.97960771	     -7.91268021	     -7.95080119	      9.63850177	     -2.53292625	     -2.38138134	     -7.11577196	     -7.76105457	     -8.92200715	     11.02463066	      2.12316003	     -4.16918679	      1.75191560	      0.09256116
      0.08000000	      0.83555261	     -3.52632239	      4.06207801	     -1.33507855	      1.01416194	     -0.52692263	     -3.29306695	      2.99794495	     -7.83796376	     -7.95278923	      9.61331770	     -2.50272785	     -2.53045225	     -7.11453989	     -7.87878161	     -8.65981807	     10.95286585	      2.05200527	     -4.11391738	      1.72124980	      0.11978717
      0.09000000	      0.82325173	     -3.55563364	      3.94138093	     -1.33499411	      1.01415679	     -0.52687145	     -3.27950576	      3.01309900	     -7.77273766	     -7.94720675	      9.59554155	     -2.47278714	     -2.68628645	     -7.11034564	     -8.02051708	     -8.39553508	     10.88788340	      1.97111574	     -4.05720081	      1.67772962	      0.15966785
      0.10000000	      0.80936603	     -3.58270017	      3.81705687	     -1.33490914	      1.01414823	     -0.52677892	     -3.26525810	      3.02808653	     -7.70637841	     -7.93892714	      9.57892540	     -2.44600649	     -2.84099286	     -7.10611509	     -8.16388253	     -8.13254695	     10.82112616	      1.89785647	     -3.99568510	      1.62807831	      0.19735720
      0.11000000	      0.79557220	     -3.60893927	      3.69274797	     -1.33481912	      1.01413853	     -0.52666146	     -3.25298429	      3.04426070	     -7.63270711	     -7.92780976	      9.56321447	     -2.42255220	     -2.99621103	     -7.10296600	     -8.30649010	     -7.86949110	     10.75422857	      1.83629098	     -3.93240969	      1.57539638	      0.23307976
      0.12000000	      0.78452981	     -3.63535867	      3.56887606	     -1.33470000	      1.01412861	     -0.52653575	     -3.24966414	      3.06229853	     -7.55102195	     -7.91044259	      9.54884383	     -2.40079328	     -3.15479062	     -7.10118758	     -8.44900367	     -7.60865663	     10.69119738	      1.78385481	     -3.86521914	      1.52313213	      0.26466428
      0.13000000	      0.77560192	     -3.66419109	      3.44981669	     -1.33458096	      1.01411858	     -0.52640624	     -3.25138918	      3.08426658	     -7.46098487	     -7.88818809	      9.53338083	     -2.37950024	     -3.30911411	     -7.10404688	     -8.58589359	     -7.35880946	     10.63192654	      1.74206156	     -3.79956505	      1.47346056	      0.29286726
      0.14000000	      0.76897003	     -3.69702820	      3.33515273	     -1.33446648	      1.01411028	     -0.52627719	     -3.25953152	      3.11196672	     -7.36356993	     -7.85872507	      9.51653806	     -2.35619559	     -3.45644908	     -7.11291845	     -8.72099633	     -7.12365390	     10.58002572	      1.70751520	     -3.73728438	      1.42815400	      0.31990455
      0.15000000	      0.75098097	     -3.74080705	      3.23485277	     -1.33435126	      1.01407897	     -0.52616371	     -3.25638386	      3.15113936	     -7.29556044	     -7.82610832	      9.50061966	     -2.33728561	     -3.57598722	     -7.13577114	     -8.82168698	     -6.91465256	     10.54265880	      1.69201326	     -3.65702500	      1.39517617	      0.34488861
      0.16000000	      0.75698398	     -3.78463001	      3.11346046	     -1.33426362	      1.01409045	     -0.52601194	     -3.27869013	      3.19140369	     -7.16004327	     -7.79331774	      9.46979320	     -2.30147035	     -3.70925960	     -7.16126241	     -8.97251356	     -6.73139639	     10.50278167	      1.66484777	     -3.61260972	      1.36653680	      0.36747213
      0.17000000	      0.74672483	     -3.84295561	      3.01490200	     -1.33416116	      1.01407359	     -0.52588020	     -3.28800719	      3.24764101	     -7.09130037	     -7.75143042	      9.44733134	     -2.27353820	     -3.80891494	     -7.20498100	     -9.07082696	     -6.57235422	     10.47908185	      1.65334809	     -3.54245900	      1.35149428	      0.39602377
      0.18000000	      0.75646012	     -3.90631251	      2.90182065	     -1.33410738	      1.01409413	     -0.52570324	     -3.31695918	      3.31104570	     -6.97165161	     -7.70745231	      9.40352932	     -2.22307066	     -3.91034328	     -7.25853774	     -9.21225309	     -6.44857836	     10.46639628	      1.63335134	     -3.50893322	      1.34440092	      0.42196517
